<svg width="37" height="42" viewBox="0 0 37 42" fill="none" xmlns="http://www.w3.org/2000/svg">
<g clip-path="url(#clip0_64_16)">
<path d="M2.64286 0C4.10469 0 5.28571 1.17305 5.28571 2.625V3.9375L10.9844 2.52656C14.131 1.74727 17.4511 2.1082 20.3583 3.55195C24.1821 5.45508 28.6833 5.45508 32.5071 3.55195L33.3 3.1582C35.0013 2.30508 37 3.53555 37 5.42227V28.3664C37 29.4574 36.3145 30.4418 35.2821 30.8273L32.4163 31.8937C28.6007 33.3129 24.3556 33.0914 20.7134 31.2867C17.5833 29.7281 13.9989 29.3426 10.5962 30.1875L5.28571 31.5V39.375C5.28571 40.827 4.10469 42 2.64286 42C1.18103 42 0 40.827 0 39.375V32.8125V27.3984V5.25V2.625C0 1.17305 1.18103 0 2.64286 0ZM5.28571 15.348L10.5714 14.2078V19.5809L5.28571 20.7211V26.0859L9.31607 25.0852C9.73728 24.9785 10.1502 24.8883 10.5714 24.8145V19.5727L13.7842 18.8836C14.4696 18.7359 15.1634 18.6785 15.8571 18.7113V13.4613C16.9804 13.4941 18.1036 13.6746 19.1937 13.9863L21.1429 14.5523V20.0238L17.6989 19.0148C17.096 18.8426 16.4766 18.7359 15.8571 18.7031V24.5602C17.6576 24.716 19.4333 25.1098 21.1429 25.7414V20.0156L23.0176 20.5652C24.1326 20.8934 25.2723 21.0902 26.4286 21.1723V15.9059C25.7844 15.8402 25.1402 15.7172 24.5125 15.5367L21.1429 14.5523V9.46641C20.0692 9.15469 19.0121 8.74453 17.9879 8.23594C17.3107 7.89961 16.5922 7.66172 15.8571 7.51406V13.4531C14.7835 13.4203 13.7098 13.5188 12.6609 13.7484L10.5714 14.2078V8.03906L5.28571 9.35156V15.348ZM26.4286 27.5379C27.8161 27.6609 29.2283 27.4805 30.558 26.9801L31.7143 26.5535V20.6719L31.0618 20.8195C29.5422 21.1723 27.9812 21.2871 26.4286 21.1887V27.5379ZM31.7143 15.2824V9.47461C29.9882 9.975 28.2125 10.2211 26.4286 10.2211V15.9141C27.5766 16.0289 28.7411 15.9551 29.8725 15.7008L31.7143 15.2742V15.2824Z" fill="#1CB0F6"/>
</g>
<defs>
<clipPath id="clip0_64_16">
<rect width="37" height="42" fill="white"/>
</clipPath>
</defs>
</svg>
