<svg width="154" height="76" viewBox="0 0 154 76" fill="none" xmlns="http://www.w3.org/2000/svg">
<g filter="url(#filter0_d_71_17)">
<rect x="11" y="8" width="132" height="53.5135" rx="20" fill="white"/>
</g>
<rect x="18.1353" y="13.3513" width="117.73" height="42.8108" rx="20" fill="#FFD700"/>
<path d="M62.98 43.18C58.96 43.18 55.9 40 55.9 36C55.9 32 59.1 28.82 63.08 28.82C64.9 28.82 66.9 29.66 68.16 30.92L67.02 32.04C66.02 31 64.54 30.4 63.08 30.4C59.96 30.4 57.48 32.86 57.48 36C57.48 39.14 59.84 41.6 62.98 41.6C64.48 41.6 65.96 41.04 66.84 40.1V36.72H63.16V35.2H68.42V43H66.84V42.06C65.7 42.8 64.38 43.18 62.98 43.18ZM75.487 43.18C72.787 43.18 70.627 41.02 70.627 38.34C70.627 35.64 72.787 33.48 75.487 33.48C78.167 33.48 80.327 35.64 80.327 38.34C80.327 41.02 78.167 43.18 75.487 43.18ZM72.147 38.34C72.147 40.18 73.627 41.66 75.487 41.66C77.307 41.66 78.807 40.18 78.807 38.34C78.807 36.48 77.307 35.02 75.487 35.02C73.627 35.02 72.147 36.48 72.147 38.34ZM82.65 43V29H84.19V43H82.65ZM91.1659 43.18C88.6659 43.18 86.5059 41.02 86.5059 38.34C86.5059 35.64 88.6659 33.48 91.1659 33.48C92.6059 33.48 93.7859 34.02 94.5859 34.9V29H96.1259V43H94.5859V41.76C93.7859 42.64 92.6059 43.18 91.1659 43.18ZM88.0259 38.34C88.0259 40.18 89.5259 41.66 91.3659 41.66C93.2059 41.66 94.6859 40.18 94.6859 38.34C94.6859 36.48 93.2059 35.02 91.3659 35.02C89.5259 35.02 88.0259 36.48 88.0259 38.34Z" fill="black"/>
<defs>
<filter id="filter0_d_71_17" x="0" y="0" width="154" height="75.5135" filterUnits="userSpaceOnUse" color-interpolation-filters="sRGB">
<feFlood flood-opacity="0" result="BackgroundImageFix"/>
<feColorMatrix in="SourceAlpha" type="matrix" values="0 0 0 0 0 0 0 0 0 0 0 0 0 0 0 0 0 0 127 0" result="hardAlpha"/>
<feMorphology radius="1" operator="dilate" in="SourceAlpha" result="effect1_dropShadow_71_17"/>
<feOffset dy="3"/>
<feGaussianBlur stdDeviation="5"/>
<feComposite in2="hardAlpha" operator="out"/>
<feColorMatrix type="matrix" values="0 0 0 0 0 0 0 0 0 0 0 0 0 0 0 0 0 0 0.25 0"/>
<feBlend mode="normal" in2="BackgroundImageFix" result="effect1_dropShadow_71_17"/>
<feBlend mode="normal" in="SourceGraphic" in2="effect1_dropShadow_71_17" result="shape"/>
</filter>
</defs>
</svg>
