<svg width="71" height="71" viewBox="0 0 71 71" fill="none" xmlns="http://www.w3.org/2000/svg">
<path d="M12.34 38.3792L58.1676 33.5625L57.9892 31.8652L12.1616 36.6819L12.34 38.3792Z" fill="#BEBE86"/>
<path d="M21.3284 53.5646L50.3275 17.7537L49.0012 16.6797L20.0021 52.4906L21.3284 53.5646Z" fill="#BEBE86"/>
<path d="M53.6073 48.9585L17.7964 19.9594L16.7223 21.2858L52.5332 50.2848L53.6073 48.9585Z" fill="#BEBE86"/>
<path d="M38.4214 57.9467L33.6048 12.1192L31.9074 12.2976L36.7241 58.1251L38.4214 57.9467Z" fill="#BEBE86"/>
<path fill-rule="evenodd" clip-rule="evenodd" d="M39.4126 34.7238C39.6589 37.0673 37.9588 39.1667 35.6153 39.413C33.2717 39.6593 31.1723 37.9592 30.926 35.6157C30.6797 33.2722 32.3798 31.1728 34.7233 30.9264C37.0668 30.6801 39.1662 32.3802 39.4126 34.7238ZM32.6236 35.4373C32.7713 36.8434 34.031 37.8635 35.4371 37.7157C36.8432 37.5679 37.8633 36.3083 37.7155 34.9021C37.5677 33.496 36.308 32.476 34.9019 32.6238C33.4958 32.7716 32.4758 34.0312 32.6236 35.4373Z" fill="#CE82FF"/>
<path fill-rule="evenodd" clip-rule="evenodd" d="M60.6296 32.4938C62.1075 46.5548 51.9068 59.1516 37.8458 60.6295C23.7848 62.1073 11.188 51.9067 9.71011 37.8456C8.23223 23.7846 18.4329 11.1878 32.4939 9.70994C46.555 8.23206 59.1518 18.4327 60.6296 32.4938ZM13.1048 37.4888C14.3856 49.6751 25.3028 58.5156 37.4891 57.2348C49.6753 55.954 58.5159 45.0368 57.235 32.8506C55.9542 20.6643 45.037 11.8237 32.8508 13.1046C20.6645 14.3854 11.824 25.3026 13.1048 37.4888Z" fill="#CE82FF"/>
<ellipse cx="35.1695" cy="35.1697" rx="2.56" ry="2.56" transform="rotate(-6 35.1695 35.1697)" fill="#7E96A3"/>
</svg>
