<svg width="71" height="71" viewBox="0 0 71 71" fill="none" xmlns="http://www.w3.org/2000/svg">
<path fill-rule="evenodd" clip-rule="evenodd" d="M10.4142 59.8545C10.2432 58.2279 11.095 56.7985 12.3235 56.6693L42.2879 53.5199C43.5148 53.391 44.6469 54.612 44.8178 56.2386L45.1981 59.8566L10.7959 63.4724L10.4142 59.8545Z" fill="#FFD700"/>
<path fill-rule="evenodd" clip-rule="evenodd" d="M31.4111 9.82836C30.7015 9.94361 30.0436 10.3218 29.5918 10.9576L27.5706 13.7779L44.9782 26.5678L46.9903 23.762C47.9017 22.4897 47.6148 20.7008 46.358 19.7811L33.5204 10.3382C32.8917 9.87565 32.1234 9.71241 31.4137 9.82767L31.4111 9.82836ZM28.0742 16.4114L15.1089 34.5651L29.3887 45.0653L32.6007 40.553C33.2507 39.6416 34.5155 39.4409 35.4164 40.1025L57.439 56.2895C58.8737 57.3505 60.9108 57.3261 62.1655 56.0638C63.76 54.4487 63.5039 51.8595 61.751 50.5691L39.5889 34.253C38.6895 33.6048 38.4763 32.3395 39.1257 31.4228L42.351 26.9091L28.0712 16.4088L28.0742 16.4114ZM10.488 37.7239L12.496 34.905L12.4986 34.9048L29.8954 47.6958L27.8847 50.515C26.9815 51.7892 25.2178 52.0749 23.9601 51.1471L11.1083 41.6925C9.84885 40.7731 9.57655 38.9962 10.488 37.7239Z" fill="#1CB0F6"/>
</svg>
