<svg width="92" height="92" viewBox="0 0 92 92" fill="none" xmlns="http://www.w3.org/2000/svg">
<path fill-rule="evenodd" clip-rule="evenodd" d="M42.5879 12.5122C41.5898 12.6171 40.8627 13.4828 40.9639 14.4457L43.1976 35.6986L24.4018 44.4192C23.8628 44.6573 23.5049 45.1373 23.3985 45.6765L12.6675 67.2479C12.2549 68.1175 12.6083 69.1704 13.4568 69.5995C14.3053 70.0287 15.3277 69.6716 15.7404 68.802L25.1106 49.0544L38.3819 66.4223C38.9663 67.1871 40.0406 67.3238 40.7814 66.7276C41.5221 66.1314 41.6489 65.0281 41.0644 64.2632L27.4754 46.8354L62.1924 30.728L53.4269 49.39C53.0143 50.2596 53.3676 51.3125 54.2162 51.7416C55.0647 52.1708 56.0871 51.8138 56.4997 50.9441L65.87 31.1965L79.1413 48.5644C79.7257 49.3292 80.7999 49.4659 81.5407 48.8697C82.2815 48.2735 82.4082 47.1702 81.8238 46.4054L66.8783 26.7286C66.8714 26.7117 66.8643 26.6948 66.857 26.678C66.4702 25.7965 65.4453 25.396 64.5679 25.7836L46.6822 34.0819L44.5785 14.0658C44.4773 13.1029 43.5861 12.4073 42.5879 12.5122Z" fill="#2F527A"/>
<path fill-rule="evenodd" clip-rule="evenodd" d="M41.4771 65.6908L12.5604 68.7301C13.7883 76.1713 20.7171 81.4467 28.4299 80.636C36.1426 79.8254 41.8231 73.2248 41.4771 65.6908ZM25.4557 52.104L25.4068 52.1091C25.415 52.1083 25.4231 52.1074 25.4313 52.1066C25.4394 52.1057 25.4476 52.1048 25.4557 52.104Z" fill="#FFA8A8"/>
<path fill-rule="evenodd" clip-rule="evenodd" d="M82.108 46.6124L53.1912 49.6516C54.4192 57.0929 61.348 62.3683 69.0607 61.5576C76.7735 60.747 82.454 54.1463 82.108 46.6124ZM66.0866 33.0256L66.0377 33.0307C66.0458 33.0298 66.054 33.029 66.0621 33.0281C66.0703 33.0273 66.0785 33.0264 66.0866 33.0256Z" fill="#6EEC90"/>
</svg>
