<svg width="44" height="40" viewBox="0 0 44 40" fill="none" xmlns="http://www.w3.org/2000/svg">
<path d="M10.0303 0.842187C10.417 0.317969 11.0358 0 11.6889 0H32.3139C32.967 0 33.5857 0.309375 33.9725 0.842187L43.5975 13.9047C44.1818 14.6953 44.1217 15.7867 43.4686 16.5172L23.5311 38.5172C23.1443 38.9469 22.5857 39.1961 22.0014 39.1961C21.417 39.1961 20.867 38.9469 20.4717 38.5172L0.534187 16.5172C-0.127531 15.7867 -0.179094 14.6953 0.405281 13.9047L10.0303 0.842187ZM13.3389 4.2625C13.0553 4.47734 12.9779 4.86406 13.1584 5.16484L18.0912 13.3805L5.44122 14.4375C5.08887 14.4633 4.81387 14.7641 4.81387 15.125C4.81387 15.4859 5.08887 15.7781 5.44122 15.8125L21.9412 17.1875C21.9756 17.1875 22.0186 17.1875 22.0529 17.1875L38.5529 15.8125C38.9053 15.7867 39.1803 15.4859 39.1803 15.125C39.1803 14.7641 38.9053 14.4719 38.5529 14.4375L25.9115 13.3891L30.8443 5.17344C31.0248 4.87266 30.9475 4.47734 30.6639 4.27109C30.3803 4.06484 29.985 4.09922 29.7443 4.35703L22.0014 12.7359L14.2584 4.34844C14.0178 4.09062 13.6225 4.05625 13.3389 4.2625Z" fill="#1CB0F6"/>
</svg>
